<svg width="156" height="52" viewBox="0 0 156 52" fill="none" xmlns="http://www.w3.org/2000/svg">
<rect width="156" height="52" rx="8" fill="#212121"/>
<path d="M62.864 32.112C62.1173 32.112 61.4453 31.984 60.848 31.728C60.2507 31.4613 59.7813 31.088 59.44 30.608C59.0987 30.128 58.928 29.568 58.928 28.928H60.88C60.9227 29.408 61.1093 29.8027 61.44 30.112C61.7813 30.4213 62.256 30.576 62.864 30.576C63.4933 30.576 63.984 30.4267 64.336 30.128C64.688 29.8187 64.864 29.424 64.864 28.944C64.864 28.5707 64.752 28.2667 64.528 28.032C64.3147 27.7973 64.0427 27.616 63.712 27.488C63.392 27.36 62.944 27.2213 62.368 27.072C61.6427 26.88 61.0507 26.688 60.592 26.496C60.144 26.2933 59.76 25.984 59.44 25.568C59.12 25.152 58.96 24.5973 58.96 23.904C58.96 23.264 59.12 22.704 59.44 22.224C59.76 21.744 60.208 21.376 60.784 21.12C61.36 20.864 62.0267 20.736 62.784 20.736C63.8613 20.736 64.7413 21.008 65.424 21.552C66.1173 22.0853 66.5013 22.8213 66.576 23.76H64.56C64.528 23.3547 64.336 23.008 63.984 22.72C63.632 22.432 63.168 22.288 62.592 22.288C62.0693 22.288 61.6427 22.4213 61.312 22.688C60.9813 22.9547 60.816 23.3387 60.816 23.84C60.816 24.1813 60.9173 24.464 61.12 24.688C61.3333 24.9013 61.6 25.072 61.92 25.2C62.24 25.328 62.6773 25.4667 63.232 25.616C63.968 25.8187 64.5653 26.0213 65.024 26.224C65.4933 26.4267 65.888 26.7413 66.208 27.168C66.5387 27.584 66.704 28.144 66.704 28.848C66.704 29.4133 66.5493 29.9467 66.24 30.448C65.9413 30.9493 65.4987 31.3547 64.912 31.664C64.336 31.9627 63.6533 32.112 62.864 32.112ZM68.2483 27.552C68.2483 26.6667 68.4296 25.8827 68.7923 25.2C69.1656 24.5173 69.6669 23.9893 70.2963 23.616C70.9363 23.232 71.6403 23.04 72.4083 23.04C73.1016 23.04 73.7043 23.1787 74.2163 23.456C74.7389 23.7227 75.1549 24.0587 75.4643 24.464V23.184H77.3043V32H75.4643V30.688C75.1549 31.104 74.7336 31.4507 74.2003 31.728C73.6669 32.0053 73.0589 32.144 72.3763 32.144C71.6189 32.144 70.9256 31.952 70.2963 31.568C69.6669 31.1733 69.1656 30.6293 68.7923 29.936C68.4296 29.232 68.2483 28.4373 68.2483 27.552ZM75.4643 27.584C75.4643 26.976 75.3363 26.448 75.0803 26C74.8349 25.552 74.5096 25.2107 74.1043 24.976C73.6989 24.7413 73.2616 24.624 72.7923 24.624C72.3229 24.624 71.8856 24.7413 71.4803 24.976C71.0749 25.2 70.7443 25.536 70.4883 25.984C70.2429 26.4213 70.1203 26.944 70.1203 27.552C70.1203 28.16 70.2429 28.6933 70.4883 29.152C70.7443 29.6107 71.0749 29.9627 71.4803 30.208C71.8963 30.4427 72.3336 30.56 72.7923 30.56C73.2616 30.56 73.6989 30.4427 74.1043 30.208C74.5096 29.9733 74.8349 29.632 75.0803 29.184C75.3363 28.7253 75.4643 28.192 75.4643 27.584ZM83.108 30.368L85.604 23.184H87.54L84.18 32H82.004L78.66 23.184H80.612L83.108 30.368ZM96.9988 27.376C96.9988 27.7067 96.9774 28.0053 96.9348 28.272H90.1988C90.2521 28.976 90.5134 29.5413 90.9828 29.968C91.4521 30.3947 92.0281 30.608 92.7108 30.608C93.6921 30.608 94.3854 30.1973 94.7908 29.376H96.7587C96.4921 30.1867 96.0068 30.8533 95.3028 31.376C94.6094 31.888 93.7454 32.144 92.7108 32.144C91.8681 32.144 91.1108 31.9573 90.4388 31.584C89.7774 31.2 89.2548 30.6667 88.8708 29.984C88.4974 29.2907 88.3108 28.4907 88.3108 27.584C88.3108 26.6773 88.4921 25.8827 88.8548 25.2C89.2281 24.5067 89.7454 23.9733 90.4068 23.6C91.0788 23.2267 91.8468 23.04 92.7108 23.04C93.5428 23.04 94.2841 23.2213 94.9348 23.584C95.5854 23.9467 96.0921 24.4587 96.4548 25.12C96.8174 25.7707 96.9988 26.5227 96.9988 27.376ZM95.0948 26.8C95.0841 26.128 94.8441 25.5893 94.3748 25.184C93.9054 24.7787 93.3241 24.576 92.6308 24.576C92.0014 24.576 91.4628 24.7787 91.0148 25.184C90.5668 25.5787 90.3001 26.1173 90.2148 26.8H95.0948Z" fill="#FCF5E5"/>
</svg>
